<svg width="349" height="92" viewBox="0 0 349 92" fill="none" xmlns="http://www.w3.org/2000/svg">
<path d="M29.9688 63.7516C46.5201 63.7516 59.9376 50.3341 59.9376 33.7828C59.9376 31.907 59.7653 30.0714 59.4356 28.2911C57.6552 27.9614 55.8197 27.7891 53.9439 27.7891C37.3926 27.7891 23.9751 41.2065 23.9751 57.7578C23.9751 59.6336 24.1474 61.4692 24.4771 63.2495C26.2575 63.5793 28.093 63.7516 29.9688 63.7516Z" fill="#175CD3"/>
<path fill-rule="evenodd" clip-rule="evenodd" d="M24.4771 63.2495C10.5485 60.67 0 48.4582 0 33.7827C0 17.2314 13.4175 3.81396 29.9688 3.81396C44.6443 3.81396 56.856 14.3625 59.4355 28.291C57.6552 27.9613 55.8196 27.789 53.9438 27.789C37.3925 27.789 23.975 41.2065 23.975 57.7578C23.975 59.6336 24.1474 61.4691 24.4771 63.2495Z" fill="#1570EF"/>
<path fill-rule="evenodd" clip-rule="evenodd" d="M29.9688 63.7515C46.5201 63.7515 59.9375 50.334 59.9375 33.7827C59.9375 31.9069 59.7652 30.0714 59.4355 28.291C73.364 30.8705 83.9126 43.0823 83.9126 57.7577C83.9126 74.309 70.4951 87.7265 53.9438 87.7265C39.2683 87.7265 27.0565 77.178 24.4771 63.2494C26.2574 63.5792 28.0929 63.7515 29.9688 63.7515Z" fill="#2E90FA"/>
<path d="M141.561 55.1235C140.493 58.5766 138.624 61.1575 135.954 62.8663C133.284 64.5395 130.169 65.376 126.609 65.376C123.12 65.376 120.094 64.6463 117.531 63.1867C115.004 61.7271 113.046 59.6446 111.657 56.939C110.305 54.2335 109.628 50.9939 109.628 47.2204C109.628 43.4469 110.322 40.2074 111.711 37.5018C113.099 34.7963 115.057 32.7137 117.585 31.2541C120.112 29.7946 123.085 29.0648 126.502 29.0648C130.098 29.0648 133.177 29.8302 135.74 31.3609C138.339 32.8561 140.119 35.1345 141.08 38.196L134.405 41.0261C133.8 38.8902 132.874 37.3772 131.629 36.4872C130.383 35.5617 128.781 35.0989 126.823 35.0989C123.903 35.0989 121.572 36.149 119.827 38.2494C118.119 40.3142 117.264 43.3045 117.264 47.2204C117.264 51.1007 118.083 54.0911 119.721 56.1914C121.358 58.2918 123.725 59.342 126.823 59.342C128.745 59.342 130.4 58.8258 131.789 57.7934C133.213 56.761 134.209 55.1947 134.779 53.0943L141.561 55.1235Z" fill="#101828"/>
<path d="M150.778 34.2979C147.752 34.2979 146.239 32.9985 146.239 30.3998C146.239 27.7654 147.752 26.4482 150.778 26.4482C153.804 26.4482 155.317 27.7654 155.317 30.3998C155.317 32.9985 153.804 34.2979 150.778 34.2979ZM154.409 38.1426V64.8421H147.094V38.1426H154.409Z" fill="#101828"/>
<path d="M162.164 64.8421V38.1426H168.519L168.999 43.3757C169.676 41.5601 170.69 40.154 172.043 39.1572C173.431 38.1248 175.176 37.6086 177.276 37.6086C178.522 37.6086 179.483 37.8044 180.16 38.196L179.305 44.3369C178.949 44.2301 178.504 44.1411 177.97 44.0699C177.472 43.9631 176.813 43.9097 175.995 43.9097C174.891 43.9097 173.841 44.1767 172.844 44.7107C171.883 45.2091 171.082 45.9922 170.441 47.0602C169.8 48.0926 169.48 49.4098 169.48 51.0117V64.8421H162.164Z" fill="#101828"/>
<path d="M196.292 37.6086C199.852 37.6086 202.611 38.374 204.569 39.9048C206.562 41.4355 207.88 43.2867 208.52 45.4583L201.685 47.9146C200.973 44.6751 199.211 43.0553 196.399 43.0553C194.37 43.0553 192.786 43.7673 191.646 45.1913C190.543 46.6152 189.991 48.7334 189.991 51.5457C189.991 54.3937 190.561 56.5118 191.7 57.9002C192.875 59.253 194.459 59.9294 196.452 59.9294C199.549 59.9294 201.401 58.3452 202.006 55.1768L208.627 57.3128C208.022 59.698 206.669 61.6381 204.569 63.1333C202.504 64.6285 199.816 65.376 196.506 65.376C193.729 65.376 191.29 64.8243 189.19 63.7207C187.125 62.6171 185.523 61.0329 184.384 58.9682C183.245 56.9034 182.675 54.4115 182.675 51.4923C182.675 48.5732 183.245 46.0812 184.384 44.0165C185.559 41.9517 187.161 40.3676 189.19 39.264C191.255 38.1604 193.622 37.6086 196.292 37.6086Z" fill="#101828"/>
<path d="M226.487 37.6086C229.157 37.6086 231.524 38.1604 233.589 39.264C235.653 40.3676 237.255 41.9517 238.395 44.0165C239.569 46.0812 240.157 48.5732 240.157 51.4923C240.157 54.4115 239.569 56.9034 238.395 58.9682C237.255 61.0329 235.653 62.6171 233.589 63.7207C231.524 64.8243 229.157 65.376 226.487 65.376C223.781 65.376 221.396 64.8243 219.331 63.7207C217.302 62.6171 215.7 61.0329 214.525 58.9682C213.386 56.9034 212.817 54.4115 212.817 51.4923C212.817 48.5732 213.386 46.0812 214.525 44.0165C215.7 41.9517 217.302 40.3676 219.331 39.264C221.396 38.1604 223.781 37.6086 226.487 37.6086ZM226.487 43.0553C224.493 43.0553 222.927 43.7673 221.788 45.1913C220.684 46.5796 220.132 48.68 220.132 51.4923C220.132 54.3047 220.684 56.4228 221.788 57.8468C222.927 59.2352 224.493 59.9294 226.487 59.9294C228.445 59.9294 229.975 59.2352 231.079 57.8468C232.218 56.4228 232.788 54.3047 232.788 51.4923C232.788 48.68 232.218 46.5796 231.079 45.1913C229.975 43.7673 228.445 43.0553 226.487 43.0553Z" fill="#101828"/>
<path d="M258.453 37.6086C261.123 37.6086 263.49 38.1604 265.555 39.264C267.62 40.3676 269.222 41.9517 270.361 44.0165C271.536 46.0812 272.123 48.5732 272.123 51.4923C272.123 54.4115 271.536 56.9034 270.361 58.9682C269.222 61.0329 267.62 62.6171 265.555 63.7207C263.49 64.8243 261.123 65.376 258.453 65.376C255.747 65.376 253.362 64.8243 251.298 63.7207C249.268 62.6171 247.666 61.0329 246.492 58.9682C245.352 56.9034 244.783 54.4115 244.783 51.4923C244.783 48.5732 245.352 46.0812 246.492 44.0165C247.666 41.9517 249.268 40.3676 251.298 39.264C253.362 38.1604 255.747 37.6086 258.453 37.6086ZM258.453 43.0553C256.459 43.0553 254.893 43.7673 253.754 45.1913C252.65 46.5796 252.098 48.68 252.098 51.4923C252.098 54.3047 252.65 56.4228 253.754 57.8468C254.893 59.2352 256.459 59.9294 258.453 59.9294C260.411 59.9294 261.942 59.2352 263.045 57.8468C264.184 56.4228 264.754 54.3047 264.754 51.4923C264.754 48.68 264.184 46.5796 263.045 45.1913C261.942 43.7673 260.411 43.0553 258.453 43.0553Z" fill="#101828"/>
<path d="M285.453 26.4482V56.6186C285.453 57.8646 285.667 58.7368 286.094 59.2352C286.521 59.7336 287.233 59.9828 288.23 59.9828C288.835 59.9828 289.334 59.9472 289.725 59.876C290.117 59.8048 290.615 59.6624 291.22 59.4488L290.579 64.2547C289.974 64.6107 289.209 64.8777 288.283 65.0556C287.393 65.2692 286.503 65.376 285.613 65.376C283.015 65.376 281.11 64.7531 279.9 63.5071C278.725 62.2255 278.138 60.1964 278.138 57.4196V26.4482H285.453Z" fill="#101828"/>
<path d="M307.685 65.376C303.484 65.376 300.12 64.1657 297.593 61.7449C295.065 59.2886 293.801 55.871 293.801 51.4923C293.801 48.5732 294.371 46.0812 295.51 44.0165C296.649 41.9517 298.233 40.3676 300.263 39.264C302.327 38.1604 304.677 37.6086 307.311 37.6086C310.017 37.6086 312.313 38.1604 314.2 39.264C316.087 40.332 317.528 41.8093 318.525 43.6961C319.522 45.5472 320.02 47.6654 320.02 50.0506C320.02 50.7625 320.002 51.4389 319.967 52.0797C319.931 52.7205 319.878 53.2901 319.807 53.7885H300.957C301.242 55.8532 301.954 57.4018 303.093 58.4342C304.268 59.431 305.781 59.9294 307.632 59.9294C309.198 59.9294 310.462 59.6268 311.423 59.0216C312.384 58.4164 313.132 57.5798 313.666 56.5118L319.486 58.7546C318.632 60.8549 317.137 62.4925 315.001 63.6673C312.865 64.8065 310.426 65.376 307.685 65.376ZM307.258 43.0019C303.805 43.0019 301.722 44.9065 301.01 48.7156H313.025C312.811 46.8644 312.206 45.4583 311.209 44.4971C310.248 43.5003 308.931 43.0019 307.258 43.0019Z" fill="#101828"/>
<path d="M336.9 65.376C334.194 65.376 331.72 64.8955 329.477 63.9343C327.27 62.9731 325.472 61.6203 324.084 59.876L328.302 55.604C329.157 56.8856 330.296 57.9358 331.72 58.7546C333.144 59.5734 334.835 59.9828 336.793 59.9828C338.181 59.9828 339.285 59.787 340.104 59.3954C340.958 58.9682 341.385 58.3096 341.385 57.4196C341.385 56.85 341.189 56.3694 340.798 55.9778C340.406 55.5506 339.623 55.2125 338.448 54.9633L333.749 54.0021C330.652 53.3613 328.445 52.4001 327.128 51.1185C325.846 49.8014 325.205 48.1104 325.205 46.0456C325.205 44.5861 325.633 43.2155 326.487 41.9339C327.377 40.6523 328.694 39.62 330.438 38.8368C332.183 38.018 334.354 37.6086 336.953 37.6086C342.364 37.6086 346.244 39.264 348.594 42.5747L344.215 46.8466C343.432 45.6006 342.4 44.6573 341.118 44.0165C339.872 43.3401 338.555 43.0019 337.167 43.0019C334.034 43.0019 332.468 43.8741 332.468 45.6184C332.468 46.188 332.717 46.6864 333.215 47.1136C333.714 47.5052 334.621 47.8434 335.939 48.1282L341.385 49.2496C344.02 49.7836 345.906 50.6913 347.045 51.9729C348.185 53.2189 348.754 54.7319 348.754 56.5118C348.754 59.075 347.722 61.1931 345.657 62.8663C343.628 64.5395 340.709 65.376 336.9 65.376Z" fill="#101828"/>
</svg>
